Coordinates
version=1
nRows=24
nColumns=24
inDegrees=yes

Units are S.I. units (second, meters, Newtons, ...)
Angles are in degrees.

endheader
time	pelvis_tilt	pelvis_list	pelvis_rotation	pelvis_tx	pelvis_ty	pelvis_tz	hip_flexion_r	hip_adduction_r	hip_rotation_r	knee_angle_r	ankle_angle_r	subtalar_angle_r	mtp_angle_r	hip_flexion_l	hip_adduction_l	hip_rotation_l	knee_angle_l	ankle_angle_l	subtalar_angle_l	mtp_angle_l	lumbar_extension	lumbar_bending	lumbar_rotation
      1.35466667	     -5.09060050	    -11.25205511	    -12.55991265	      0.84010142	      0.96435804	      0.36905880	    -14.90439417	     12.35982164	      5.35820554	     -8.00079152	     12.53081260	     -5.33128080	     -3.52853323	     35.55864348	    -18.31596813	    -16.48657385	      1.20905956	      3.85206227	     -1.49155559	      0.39399041	     -6.96019420	     12.65863043	     12.02473066
      1.35883333	     -5.02803654	    -11.20763364	    -12.88794020	      0.84608220	      0.96367290	      0.36945391	    -15.26814881	     12.11190276	      5.59328260	     -8.17349238	     12.46887953	     -5.19672621	     -3.26293723	     35.37998776	    -18.48856371	    -16.40158480	      0.72323710	      4.08343348	     -1.55945740	      0.48398308	     -7.05829151	     12.49151943	     12.31950455
      1.36300000	     -5.03103383	    -11.19914760	    -13.16492610	      0.85209726	      0.96283740	      0.36968173	    -15.55440556	     11.91986278	      5.76464109	     -8.36896503	     12.40920643	     -5.03999195	     -3.18097675	     35.29250601	    -18.65762661	    -16.18167760	      0.21304488	      4.28964425	     -1.67987678	      0.51055254	     -7.08166622	     12.39912097	     12.40017496
      1.36716667	     -4.95865426	    -11.13952038	    -13.50419485	      0.85820627	      0.96224566	      0.37003778	    -15.91511317	     11.63522396	      5.98968499	     -8.55344520	     12.28648084	     -4.87639070	     -2.89801556	     35.05641128	    -18.80642581	    -16.16872636	     -0.27911806	      4.46623550	     -1.75080481	      0.58875293	     -7.17191330	     12.21175371	     12.84145303
      1.37133333	     -4.97737601	    -11.11841948	    -13.75550645	      0.86439608	      0.96144033	      0.37016181	    -16.17979503	     11.42601346	      6.12223167	     -8.74275645	     12.14871979	     -4.71517424	     -2.85012124	     34.95324380	    -18.93249495	    -15.98115381	     -0.78898583	      4.64866247	     -1.86669544	      0.60402263	     -7.13792193	     12.12515047	     12.86276236
      1.37550000	     -4.87665087	    -11.05994851	    -14.10122879	      0.87054099	      0.96096786	      0.37043297	    -16.53131651	     11.11689397	      6.32082742	     -8.98878552	     12.01182524	     -4.49944343	     -2.50418224	     34.63547284	    -19.06160218	    -16.01391877	     -1.24349420	      4.75243647	     -1.89123516	      0.69798894	     -7.28129519	     11.93006788	     13.33131542
      1.37966667	     -4.90254311	    -11.04331211	    -14.33853422	      0.87684184	      0.96021494	      0.37046395	    -16.77170605	     10.90506981	      6.43434027	     -9.20012133	     11.81053219	     -4.32738864	     -2.44714330	     34.50532253	    -19.16555370	    -15.85494817	     -1.72920706	      4.86132823	     -1.99420515	      0.71504103	     -7.22697014	     11.85932782	     13.34497688
      1.38383333	     -4.77143113	    -10.94632709	    -14.67192613	      0.88316637	      0.95988137	      0.37067884	    -17.13640499	     10.53548931	      6.60595771	     -9.44723145	     11.61027433	     -4.08479071	     -1.92121372	     34.09851744	    -19.22541843	    -15.98506059	     -2.12263911	      4.88256174	     -2.02186070	      0.85587223	     -7.36671465	     11.61295582	     13.79726747
      1.38800000	     -4.80888143	    -10.94288859	    -14.89497763	      0.88949862	      0.95917908	      0.37060855	    -17.32401157	     10.33480392	      6.67611673	     -9.72500587	     11.34640286	     -3.90172436	     -1.85587369	     33.96532060	    -19.31821525	    -15.86554815	     -2.59641256	      4.89927413	     -2.11980090	      0.87446826	     -7.31351474	     11.57403207	     13.79788567
      1.39216667	     -4.63060529	    -10.81910083	    -15.17156840	      0.89595817	      0.95899722	      0.37065903	    -17.70251960	      9.92265712	      6.75914720	     -9.99368861	     11.06976947	     -3.63946570	     -1.01198349	     33.47150475	    -19.28635870	    -16.02559099	     -2.91665945	      4.81304307	     -2.18117099	      1.12048379	     -7.47782629	     11.28846514	     14.22587223
      1.39633333	     -4.53572692	    -10.75237211	    -15.47014332	      0.90236113	      0.95871683	      0.37072387	    -17.97560941	      9.59114604	      6.88314744	    -10.31361690	     10.68593430	     -3.54006666	      5.38669053	     33.08309916	    -19.32916265	    -16.18485729	     -3.25275610	      4.59555879	     -2.26859527	      3.10859777	     -7.57484520	     11.11640388	     14.31069434
      1.40050000	     -4.63422840	    -10.70414492	    -15.66971868	      0.90884119	      0.95805197	      0.37051227	    -18.01827800	      9.35496849	      6.85556550	    -10.70424114	     10.40238123	     -3.22274347	      5.44121998	     32.97839244	    -19.34488234	    -16.12618768	     -3.63897894	      4.41542321	     -2.43711812	      3.12278601	     -7.42536742	     11.04809458	     14.42984799
      1.40466667	     -4.65268338	    -10.61045854	    -15.87900449	      0.91536717	      0.95762121	      0.37034124	    -18.11682311	      9.04740760	      6.84474035	    -11.10905244	     10.04839431	     -2.97181757	      5.53400254	     32.73889310	    -19.30361156	    -16.16768575	     -3.94334170	      4.09598004	     -2.66474884	      3.14984295	     -7.34943497	     10.89561352	     14.54870951
      1.40883333	     -4.53916339	    -10.50368836	    -16.06756745	      0.92191850	      0.95747910	      0.37011632	    -18.32862474	      8.68278613	      6.80194839	    -11.52218894	      9.65084127	     -2.65402700	      5.80969277	     32.33450258	    -19.21207686	    -16.30545944	     -4.19751071	      3.72587241	     -2.84695098	      3.25875733	     -7.42762517	     10.68428037	     14.74603347
      1.41300000	     -4.56188122	    -10.37525064	    -16.27100595	      0.92850863	      0.95718258	      0.36996518	    -18.36326151	      8.34960854	      6.78633636	    -12.00093173	      9.21092519	     -2.47857466	      5.96020935	     32.08942587	    -19.13258838	    -16.44995464	     -4.45725922	      3.25027700	     -3.05868169	      3.31564531	     -7.32639721	     10.49202623	     14.78112242
      1.41716667	     -4.53113956	    -10.23845956	    -16.43682216	      0.93508542	      0.95702644	      0.36970770	    -18.41386102	      7.99599933	      6.70735268	    -12.52332751	      8.74689862	     -2.22556302	      6.17149761	     31.79135110	    -19.00818464	    -16.60076551	     -4.68060806	      2.67497631	     -3.34776904	      3.40411689	     -7.28648429	     10.27803370	     14.88902949
      1.42133333	     -4.35202150	    -10.08573424	    -16.54523219	      0.94166480	      0.95717220	      0.36928196	    -18.58137130	      7.58163696	      6.54353369	    -13.06884777	      8.24477101	     -1.85311792	      6.71026736	     31.32283187	    -18.79625876	    -16.73436257	     -4.84017904	      2.02143026	     -3.71371458	      3.64536119	     -7.42368546	      9.99886895	     15.04167194
      1.42550000	     -4.38722554	     -9.91032785	    -16.68888290	      0.94829821	      0.95704836	      0.36909722	    -18.50164534	      7.23838224	      6.47898891	    -13.67148276	      7.66786596	     -1.78384047	      6.93792840	     31.13471276	    -18.65086741	    -16.95132515	     -5.09031974	      1.32128372	     -3.96146197	      3.74548432	     -7.27323312	      9.75353456	     14.99321811
      1.42966667	     -4.21245973	     -9.71957674	    -16.74181821	      0.95486961	      0.95730434	      0.36854109	    -18.57191599	      6.80422896	      6.22461581	    -14.33954013	      7.11384838	     -1.37987570	      7.64199786	     30.70495565	    -18.36761770	    -17.05387574	     -5.22484519	      0.48920869	     -4.47336872	      4.08025034	     -7.38780216	      9.44156071	     15.12106441
      1.43383333	     -4.14144656	     -9.50649217	    -16.81588037	      0.96154577	      0.95748119	      0.36825247	    -18.52759903	      6.40671055	      6.05307708	    -15.00277111	      6.35663794	     -1.38220162	     15.90880947	     30.44015582	    -18.14055169	    -17.32630592	     -5.48375838	     -0.32330628	     -4.75187052	      8.01588726	     -7.34382194	      9.11903970	     15.04308845
      1.43800000	     -4.11192150	     -9.30810452	    -16.86143219	      0.96810038	      0.95763857	      0.36783577	    -18.37897399	      6.05000888	      5.86727939	    -15.78891942	      5.68054516	     -1.23745657	     15.97475149	     30.25320472	    -17.91220325	    -17.45167003	     -5.76137609	     -1.14523792	     -5.16367064	      8.02901604	     -7.27472860	      8.83567682	     15.04181228
      1.44216667	     -4.08277461	     -9.07205863	    -16.88328138	      0.97470918	      0.95786524	      0.36748908	    -18.19598753	      5.67718400	      5.67240323	    -16.60949236	      4.92737418	     -1.21595185	     16.04849360	     30.09843598	    -17.65793261	    -17.64217066	     -6.08859099	     -1.93733980	     -5.47423792	      8.04974344	     -7.17687140	      8.49585052	     14.97137904
      1.44633333	     -3.93540693	     -8.81682164	    -16.83917266	      0.98128094	      0.95831923	      0.36687855	    -18.07324069	      5.24348697	      5.34947149	    -17.50315778	      4.18875404	     -0.96843725	     16.27731345	     29.83039245	    -17.30693252	    -17.72657193	     -6.38209783	     -2.80173533	     -6.00714482	      8.13185253	     -7.22096642	      8.11855640	     14.92693312
      1.45050000	     -3.82964795	     -8.55195837	    -16.77085470	      0.98786628	      0.95876516	      0.36634135	    -17.87769349	      4.84077472	      5.04467443	    -18.44124713	      3.35958187	     -0.89259030	     16.63505377	     29.65512958	    -16.97042309	    -17.83123205	     -6.76351217	     -3.58766808	     -6.40440832	      8.25159834	     -7.20478369	      7.73154503	     14.79237053
